<?xml version="1.0" standalone="no"?>
<!DOCTYPE svg PUBLIC "-//W3C//DTD SVG 20010904//EN"
 "http://www.w3.org/TR/2001/REC-SVG-20010904/DTD/svg10.dtd">
<svg version="1.0" xmlns="http://www.w3.org/2000/svg"
 width="256.000000pt" height="256.000000pt" viewBox="0 0 256.000000 256.000000"
 preserveAspectRatio="xMidYMid meet">

<g transform="translate(0.000000,256.000000) scale(0.100000,-0.100000)"
fill="#000000" stroke="none">
<path d="M2103 2382 c12 -13 17 -37 17 -85 l0 -67 -430 0 -430 0 0 -650 0
-650 475 0 476 0 24 -25 25 -24 0 -344 c0 -315 -1 -345 -17 -359 -10 -9 -25
-18 -33 -21 -8 -3 67 -6 168 -6 l182 -1 0 1125 0 1125 -237 0 c-228 0 -236 -1
-220 -18z m-413 -372 l0 -210 -210 0 -210 0 0 210 0 210 210 0 210 0 0 -210z
m430 0 l0 -210 -210 0 -210 0 0 210 0 210 210 0 210 0 0 -210z m430 0 l0 -210
-210 0 -210 0 0 210 0 210 210 0 210 0 0 -210z m-860 -430 l0 -210 -210 0
-210 0 0 210 0 210 210 0 210 0 0 -210z m430 0 l0 -210 -210 0 -210 0 0 210 0
210 210 0 210 0 0 -210z m430 0 l0 -210 -210 0 -210 0 0 210 0 210 210 0 210
0 0 -210z m-860 -430 l0 -210 -210 0 -210 0 0 210 0 210 210 0 210 0 0 -210z
m430 0 l0 -210 -210 0 -210 0 0 210 0 210 210 0 210 0 0 -210z m430 0 l0 -210
-210 0 -210 0 0 210 0 210 210 0 210 0 0 -210z"/>
<path d="M1300 2140 c0 -55 8 -61 47 -30 28 22 55 19 85 -7 9 -8 22 -12 27 -8
6 3 25 -1 43 -9 33 -17 75 -20 127 -10 30 6 31 8 31 60 l0 54 -180 0 -180 0 0
-50z"/>
<path d="M1300 1941 l0 -111 179 0 179 0 0 24 c0 20 -6 26 -32 29 l-31 4 33 1
c30 2 32 4 32 41 0 38 -1 38 -45 44 -25 4 -55 3 -67 -2 -23 -8 -57 6 -119 51
-13 9 -48 19 -76 23 l-53 7 0 -111z"/>
<path d="M1743 2143 c-9 -3 -13 -27 -13 -69 0 -64 0 -65 30 -70 17 -4 30 -8
30 -11 0 -2 -12 -29 -26 -59 -17 -36 -23 -59 -17 -65 6 -6 39 -15 74 -21 71
-11 146 2 155 27 7 18 -107 236 -121 232 -5 -2 -23 7 -38 19 -28 23 -48 28
-74 17z"/>
<path d="M1940 2045 l0 -53 49 -17 c36 -11 55 -13 75 -6 24 10 26 15 26 65 l0
55 -30 -10 c-23 -8 -41 -7 -75 4 l-45 16 0 -54z"/>
<path d="M2162 2039 c0 -137 8 -178 25 -133 6 15 7 15 19 -1 12 -17 15 -17 31
-3 35 30 43 30 53 2 8 -19 15 -25 30 -21 11 3 20 1 20 -4 0 -5 -5 -9 -11 -9
-5 0 -7 -5 -3 -11 6 -10 24 -8 71 7 13 4 11 0 -7 -15 l-25 -21 24 0 c13 0 30
8 37 18 13 16 13 16 14 -1 0 -15 7 -18 38 -15 l37 3 3 105 2 105 -19 -28 -18
-29 -7 37 c-8 41 -28 43 -36 2 l-5 -26 -23 24 -23 24 22 20 c26 24 19 56 -11
46 -22 -7 -28 13 -9 32 18 18 1 33 -31 26 -18 -3 -30 -1 -30 5 0 6 -35 10 -84
10 l-85 1 1 -150z m123 30 c-4 -6 -17 -15 -29 -20 -19 -9 -18 -9 6 -6 15 2 25
0 22 -4 -13 -22 -64 -1 -64 26 0 5 5 3 10 -5 7 -11 10 -11 10 -2 0 7 4 11 8 8
4 -2 14 -1 22 5 20 12 23 11 15 -2z m114 -99 c15 -23 15 -23 -8 -11 -12 7 -29
10 -36 7 -7 -2 -16 1 -19 9 -3 8 3 16 12 18 26 7 34 3 51 -23z"/>
<path d="M1302 1714 l3 -47 48 -12 c27 -7 53 -17 59 -23 8 -8 5 -9 -10 -6 -14
4 -22 0 -27 -15 -6 -21 -7 -21 -38 5 -28 23 -32 25 -35 10 -2 -10 3 -25 12
-35 20 -22 21 -42 1 -35 -22 9 -21 -103 1 -134 15 -21 21 -22 180 -22 l164 0
0 56 c0 34 -4 53 -10 49 -5 -3 -10 1 -10 10 0 9 5 13 10 10 14 -9 13 21 -2 45
-11 18 -14 18 -30 3 -16 -14 -18 -13 -24 12 -9 36 26 75 50 55 14 -11 16 -5
16 54 l0 66 -181 0 -180 0 3 -46z m237 -141 c-12 -13 -15 -13 -31 6 -18 24
-14 53 7 45 7 -3 16 3 21 13 6 14 9 12 12 -15 2 -18 -2 -40 -9 -49z m81 -73
l-8 -35 -1 31 c-1 17 2 34 6 37 11 12 12 3 3 -33z m-82 -27 c-10 -2 -26 -2
-35 0 -10 3 -2 5 17 5 19 0 27 -2 18 -5z"/>
<path d="M1730 1710 c0 -55 8 -61 47 -30 28 22 55 19 85 -7 9 -8 22 -12 27 -8
6 3 25 -1 43 -9 33 -17 75 -20 127 -10 30 6 31 8 31 60 l0 54 -180 0 -180 0 0
-50z"/>
<path d="M1730 1511 l0 -111 179 0 179 0 0 24 c0 20 -6 26 -32 29 l-31 4 33 1
c30 2 32 4 32 41 0 38 -1 38 -45 44 -25 4 -55 3 -67 -2 -23 -8 -57 6 -119 51
-13 9 -48 19 -76 23 l-53 7 0 -111z"/>
<path d="M2173 1713 c-9 -3 -13 -27 -13 -69 0 -64 0 -65 30 -70 17 -4 30 -8
30 -11 0 -2 -12 -29 -26 -59 -17 -36 -23 -59 -17 -65 6 -6 39 -15 74 -21 71
-11 146 2 155 27 7 18 -107 236 -121 232 -5 -2 -23 7 -38 19 -28 23 -48 28
-74 17z"/>
<path d="M2370 1615 l0 -53 49 -17 c36 -11 55 -13 75 -6 24 10 26 15 26 65 l0
55 -30 -10 c-23 -8 -41 -7 -75 4 l-45 16 0 -54z"/>
<path d="M1300 1280 c0 -55 8 -61 47 -30 28 22 55 19 85 -7 9 -8 22 -12 27 -8
6 3 25 -1 43 -9 33 -17 75 -20 127 -10 30 6 31 8 31 60 l0 54 -180 0 -180 0 0
-50z"/>
<path d="M1300 1081 l0 -111 179 0 179 0 0 24 c0 20 -6 26 -32 29 l-31 4 33 1
c30 2 32 4 32 41 0 38 -1 38 -45 44 -25 4 -55 3 -67 -2 -23 -8 -57 6 -119 51
-13 9 -48 19 -76 23 l-53 7 0 -111z"/>
<path d="M1732 1284 l3 -47 48 -12 c27 -7 53 -17 59 -23 8 -8 5 -9 -10 -6 -14
4 -22 0 -27 -15 -6 -21 -7 -21 -38 5 -28 23 -32 25 -35 10 -2 -10 3 -25 12
-35 20 -22 21 -42 1 -35 -22 9 -21 -103 1 -134 15 -21 21 -22 180 -22 l164 0
0 56 c0 34 -4 53 -10 49 -5 -3 -10 1 -10 10 0 9 5 13 10 10 14 -9 13 21 -2 45
-11 18 -14 18 -30 3 -16 -14 -18 -13 -24 12 -9 36 26 75 50 55 14 -11 16 -5
16 54 l0 66 -181 0 -180 0 3 -46z m237 -141 c-12 -13 -15 -13 -31 6 -18 24
-14 53 7 45 7 -3 16 3 21 13 6 14 9 12 12 -15 2 -18 -2 -40 -9 -49z m81 -73
l-8 -35 -1 31 c-1 17 2 34 6 37 11 12 12 3 3 -33z m-82 -27 c-10 -2 -26 -2
-35 0 -10 3 -2 5 17 5 19 0 27 -2 18 -5z"/>
<path d="M2162 1179 c0 -137 8 -178 25 -133 6 15 7 15 19 -1 12 -17 15 -17 31
-3 35 30 43 30 53 2 8 -19 15 -25 30 -21 11 3 20 1 20 -4 0 -5 -5 -9 -11 -9
-5 0 -7 -5 -3 -11 6 -10 24 -8 71 7 13 4 11 0 -7 -15 l-25 -21 24 0 c13 0 30
8 37 18 13 16 13 16 14 -1 0 -15 7 -18 38 -15 l37 3 3 105 2 105 -19 -28 -18
-29 -7 37 c-8 41 -28 43 -36 2 l-5 -26 -23 24 -23 24 22 20 c26 24 19 56 -11
46 -22 -7 -28 13 -9 32 18 18 1 33 -31 26 -18 -3 -30 -1 -30 5 0 6 -35 10 -84
10 l-85 1 1 -150z m123 30 c-4 -6 -17 -15 -29 -20 -19 -9 -18 -9 6 -6 15 2 25
0 22 -4 -13 -22 -64 -1 -64 26 0 5 5 3 10 -5 7 -11 10 -11 10 -2 0 7 4 11 8 8
4 -2 14 -1 22 5 20 12 23 11 15 -2z m114 -99 c15 -23 15 -23 -8 -11 -12 7 -29
10 -36 7 -7 -2 -16 1 -19 9 -3 8 3 16 12 18 26 7 34 3 51 -23z"/>
</g>
</svg>
